<svg width="1022.84" height="813.16" xmlns="http://www.w3.org/2000/svg">
 <defs>
  <linearGradient y2="-0.00002" x2="0.49998" y1="1.00006" x1="0.49998" id="3cf802be-0480-4c68-848a-073112220499">
   <stop stop-opacity="0.25" stop-color="gray" offset="0"/>
   <stop stop-opacity="0.12" stop-color="gray" offset="0.54"/>
   <stop stop-opacity="0.1" stop-color="gray" offset="1"/>
  </linearGradient>
 </defs>
 <title>book lover</title>
 <g>
  <title>Layer 1</title>
  <path id="svg_1" opacity="0.1" fill="#00bfa6" d="m599.86,137.42c-64.72,-2.25 -126.37,-23.14 -185.23,-46s-117.16,-48.19 -180.33,-60.3c-40.63,-7.79 -87.1,-8.89 -119.83,12.89c-31.51,21 -41.69,57.15 -47.16,90.73c-4.12,25.26 -6.54,51.84 4.75,75.49c7.83,16.42 21.74,30.22 31.35,46c33.47,54.72 9.82,122.2 -26.45,175.63c-17,25.07 -36.75,49 -49.87,75.66s-19.2,57.25 -7.72,84.47c11.39,27 38.52,47.24 67.9,61.49c59.69,28.95 130,37.23 198.61,41.92c151.83,10.39 304.46,5.89 456.69,1.39c56.34,-1.67 112.92,-3.36 168.34,-12.07c30.78,-4.84 62.55,-12.51 84.9,-31.05c28.36,-23.53 35.39,-63.38 16.39,-92.88c-31.89,-49.49 -120,-61.78 -142.32,-114.9c-12.26,-29.23 0.34,-61.79 18.16,-88.91c38.24,-58.16 102.33,-109.19 105.71,-175.67c2.32,-45.67 -28.5,-91.39 -76.14,-113c-49.93,-22.73 -119.19,-19.85 -156.01,17.64c-37.94,38.63 -104.6,53.45 -161.74,51.47z"/>
  <polygon id="svg_2" fill="#00bfa6" points="435.45 690.5 93.17 688.83 59.16 609.06 179.42 600.33 158.46 512.87 396.32 482.04 168.55 402.86 188.67 398.08 554.92 457.83 534.75 594.32 505.92 669.33 435.45 690.5"/>
  <path id="svg_3" fill="#00bfa6" d="m98.42,655.42s21,-3.36 33.6,11.48c0,0 -9.24,7.28 -29.12,-2.8l-4.48,-8.68z"/>
  <path id="svg_4" fill="#00bfa6" d="m96.22,655.09s-13.4,16.49 -6.8,34.85c0,0 10.92,-4.37 12.11,-26.63l-5.31,-8.22z"/>
  <path id="svg_5" fill="#00bfa6" d="m84.18,627.98s8.4,-15.41 42,6.16c0,0 -4.48,10.36 -19.32,9.52s-18.76,-7.56 -22.68,-15.68z"/>
  <path id="svg_6" fill="#00bfa6" d="m82.01,626.87s-17.43,-2 -19.12,37.9c0,0 11.05,2.29 18.9,-10.33s4.63,-19.7 0.22,-27.57z"/>
  <path id="svg_7" fill="#00bfa6" d="m71.86,595.04s9.8,-27.16 45.36,-7.84c0,0 -8.12,24.92 -41.72,17.08l-3.64,-9.24z"/>
  <path id="svg_8" fill="#00bfa6" d="m60.94,554.44s18.48,-27.44 51.24,-2c0,0 -11.48,25.76 -48.44,11.76l-2.8,-9.76z"/>
  <path id="svg_9" fill="#00bfa6" d="m57.02,515.8s21.56,-25.21 54,0c0,0 -20.44,22.12 -54,6.44l0,-6.44z"/>
  <path id="svg_10" fill="#00bfa6" d="m53.66,478.27s21.84,-26.32 52.92,-1.4c0,0 -24.64,23.24 -52.92,7.56l0,-6.16z"/>
  <path id="svg_11" fill="#00bfa6" d="m55.62,444.95s23,-33.88 52.08,-10.92c0,0 -24.64,29.12 -52.08,17.36l0,-6.44z"/>
  <path id="svg_12" fill="#00bfa6" d="m60.94,406.03s24.36,-33.6 52.64,-7.84c0,0 -28.84,29.12 -52.64,14l0,-6.16z"/>
  <path id="svg_13" fill="#00bfa6" d="m69.06,371.24s28.84,-31.58 54,-19c0,0 -30.05,33.54 -55.26,27.38l1.26,-8.38z"/>
  <path id="svg_14" fill="#00bfa6" d="m79.14,338.26s33.28,-38.68 52.64,-25.76c0,0 -24.52,30 -55,33l2.36,-7.24z"/>
  <path id="svg_15" fill="#00bfa6" d="m93.69,300.01s29.13,-31.58 50.41,-23.74c0,0 -24.92,32.76 -54.32,33.6l3.91,-9.86z"/>
  <path id="svg_16" fill="#00bfa6" d="m106.86,264.23s32.2,-30.24 46.2,-24.92c0,0 -23.24,33.6 -47.6,31.64l1.4,-6.72z"/>
  <path id="svg_17" fill="#00bfa6" d="m119.74,231.19s27.72,-36.13 42.85,-33.33c0,0 -16.81,32.21 -42.85,37l0,-3.67z"/>
  <path id="svg_18" fill="#00bfa6" d="m133.72,186.64s24.5,-27.69 37.74,-27.63c0,0 -19.34,37 -38.75,36.66l1.01,-9.03z"/>
  <path id="svg_19" fill="#00bfa6" d="m142,156.98l23.67,-57.68s1.18,52.14 -26.68,68.38l3.01,-10.7z"/>
  <path id="svg_20" fill="#00bfa6" d="m151.61,93.37s3.92,-48.17 1.4,-52.09c0,0 16.92,40.05 -1.56,73.37l0.16,-21.28z"/>
  <path id="svg_21" fill="#00bfa6" d="m70.94,594.4s-24.54,-15.21 -40.43,22c0,0 21.84,14.5 43.32,-12.51l-2.89,-9.49z"/>
  <path id="svg_22" fill="#00bfa6" d="m60.15,552.89s-30.1,-13.73 -44.7,25.12c0,0 23.25,16 47.44,-15.3l-2.74,-9.82z"/>
  <path id="svg_23" fill="#00bfa6" d="m55.62,518.11s-21.56,-25.21 -54,0c0,0 20.44,22.12 54,6.44l0,-6.44z"/>
  <path id="svg_24" fill="#00bfa6" d="m52.92,478.27s-21.84,-26.32 -52.92,-1.4c0,0 24.64,23.24 52.92,7.56l0,-6.16z"/>
  <path id="svg_25" fill="#00bfa6" d="m55.62,445.91s-15.32,-37.95 -48.62,-21.63c0,0 18,33.65 47.26,27.93l1.36,-6.3z"/>
  <path id="svg_26" fill="#00bfa6" d="m62.87,405.84s-15.23,-38.61 -49,-20.71c0,0 20.68,35.39 47.5,26.67l1.5,-5.96z"/>
  <path id="svg_27" fill="#00bfa6" d="m72.31,371.43s-6,-42.33 -34,-46.12c0,0 5.94,44.64 30.23,53.75l3.77,-7.63z"/>
  <path id="svg_28" fill="#00bfa6" d="m79.85,338.34s-2.34,-51 -25.49,-52.78c0,0 0.78,38.71 22.88,60l2.61,-7.22z"/>
  <path id="svg_29" fill="#00bfa6" d="m96.09,298.58s-6.9,-42.41 -29,-47.59c0,0 2.74,41.07 26.81,58l2.19,-10.41z"/>
  <path id="svg_30" fill="#00bfa6" d="m109.48,264.58s-0.23,-44.18 -13.73,-50.67c0,0 -8.37,40 9.82,56.31l3.91,-5.64z"/>
  <path id="svg_31" fill="#00bfa6" d="m120.77,230.69s-1.89,-45.49 -15.87,-51.9c0,0 -4.78,36 13.78,54.88l2.09,-2.98z"/>
  <path id="svg_32" fill="#00bfa6" d="m135.67,190.27s-0.08,-37 -10.06,-45.68c0,0 -9.92,40.53 4.85,53.12l5.21,-7.44z"/>
  <path id="svg_33" fill="#00bfa6" d="m140.83,155.16l-9.71,-61.58s-13.19,50.46 10.17,72.7l-0.46,-11.12z"/>
  <path id="svg_34" fill="#00bfa6" d="m142.72,93.95s-24.92,-41.4 -24.41,-46c0,0 2.65,43.39 34,65l-9.59,-19z"/>
  <path id="svg_35" fill="#00bfa6" d="m145.64,81.72s-23.52,-58.8 -34.16,-63.56c0,0 33.6,17.08 36.12,61.88l-1.96,1.68z"/>
  <path id="svg_36" fill="#444053" d="m132.59,196.02l-1.61,-0.49c19.85,-64.73 24.8,-106 13.95,-116.35l1.15,-1.22c11.51,10.92 6.84,51.74 -13.49,118.06z"/>
  <path id="svg_37" fill="#444053" d="m77.93,347.58l-2.38,-0.85c2.11,-5.93 4.38,-11.95 6.76,-17.88c20.72,-51.64 38.36,-99.68 49.67,-136.56l2.07,-1c-11.33,36.95 -28.66,86.83 -49.4,138.54c-2.37,5.82 -4.63,11.81 -6.72,17.75z"/>
  <path id="svg_38" fill="#444053" d="m128.01,703.86c-0.32,-0.35 -32.49,-36.58 -54.92,-98.43a364.18,364.18 0 0 1 -21.67,-112.78c-1.54,-48.13 8.56,-101.87 25.86,-150.69l1.88,2.2c-38.84,109.57 -23.41,203.46 -2.94,260c22.19,61.29 54,97.12 54.31,97.48l-2.52,2.22z"/>
  <path id="svg_39" fill="#d5d6db" d="m630.73,626.94s-22.67,27.67 -4.67,69.5l-181,78.5l-17.37,3.64l-8,-35l5.35,-44.17l0,-24.14l205.69,-48.33z"/>
  <polygon id="svg_40" fill="#00bfa6" points="59.16 609.06 309.68 563.39 641.63 616.27 435.45 690.5 59.16 609.06"/>
  <polygon id="svg_41" fill="#00bfa6" points="59.16 609.06 309.68 563.39 641.63 616.27 435.45 690.5 59.16 609.06"/>
  <path id="svg_42" fill="#00bfa6" d="m59.16,609.05s-23.43,44.39 3.57,85.39l371.5,80.5s-23.06,-35.36 1.19,-84.44l-376.26,-81.45z"/>
  <path id="svg_43" opacity="0.1" d="m59.16,609.05s-23.43,44.39 3.57,85.39l371.5,80.5s-23.06,-35.36 1.19,-84.44l-376.26,-81.45z"/>
  <path id="svg_44" opacity="0.1" d="m70.23,624.44s-13.39,32.48 0,53.5"/>
  <path id="svg_45" fill="#00bfa6" d="m434.23,774.94l207.4,-88.5s11.6,2.5 4.1,11s-207.5,86 -207.5,86l-375.5,-89l371.5,80.5z"/>
  <path id="svg_46" opacity="0.1" d="m434.23,774.94l207.4,-88.5s11.6,2.5 4.1,11s-207.5,86 -207.5,86l-375.5,-89l371.5,80.5z"/>
  <path id="svg_47" opacity="0.1" d="m417.23,699.44s-20,24 0,60"/>
  <rect id="svg_48" opacity="0.1" transform="rotate(-18.450000762939453 -299.769989013672,172.14999389648423) " height="1" width="94.57" y="929.50999" x="210.91001"/>
  <rect id="svg_49" opacity="0.1" transform="rotate(-20.81999969482422 -321.8500061035156,207.80999755859375) " height="1" width="115.23" y="967.67" x="187.49999"/>
  <rect id="svg_50" opacity="0.1" transform="rotate(-22.260000228881836 -335.5100097656251,231.58000183105463) " height="1" width="133.56" y="996.19" x="173.18999"/>
  <rect id="svg_51" opacity="0.1" transform="rotate(-24.309999465942383 -352.4899902343751,265.58999633789057) " height="1" width="153.74" y="1032.12" x="155.88001"/>
  <rect id="svg_52" opacity="0.1" transform="rotate(-23.610000610351562 -346.9599914550782,258.5899963378906) " height="1" width="168.15" y="1027.23" x="162.25001"/>
  <rect id="svg_53" opacity="0.1" transform="rotate(-23.360000610351562 -343.7200012207031,261.9299926757813) " height="1" width="201.22" y="1031.18999" x="166.61"/>
  <polygon id="svg_54" opacity="0.3" fill="#fff" points="152.23 613.94 328.23 576.94 435.45 597.44 291.23 643.94 152.23 613.94"/>
  <path id="svg_55" fill="#00bfa6" d="m641.63,616.27s9.1,3.67 3.76,9.34s-209.97,64.89 -209.97,64.89l206.21,-74.23z"/>
  <path id="svg_56" fill="#d5d6db" d="m730.02,530.76s-22.66,27.66 -4.66,69.5l-181,78.5l-17.37,3.66l-8,-35l5.43,-44.16l0,-24.17l205.6,-48.33z"/>
  <polygon id="svg_57" fill="#3a3768" points="158.46 512.87 408.97 467.21 740.93 520.09 534.75 594.32 158.46 512.87"/>
  <path id="svg_58" fill="#3a3768" d="m158.42,512.87s-23.44,44.39 3.56,85.39l371.5,80.5s-23.05,-35.39 1.23,-84.45l-376.29,-81.44z"/>
  <path id="svg_59" opacity="0.1" d="m158.42,512.87s-23.44,44.39 3.56,85.39l371.5,80.5s-23.05,-35.39 1.23,-84.45l-117.48,-25.43l-258.81,-56.01z"/>
  <path id="svg_60" opacity="0.1" d="m169.52,528.26s-13.38,32.47 0,53.5"/>
  <path id="svg_61" fill="#3a3768" d="m533.52,678.76l207.41,-88.5s11.59,2.5 4.09,11s-207.5,86 -207.5,86l-375.5,-89l371.5,80.5z"/>
  <path id="svg_62" opacity="0.1" d="m533.52,678.76l207.41,-88.5s11.59,2.5 4.09,11s-207.5,86 -207.5,86l-375.5,-89l371.5,80.5z"/>
  <path id="svg_63" opacity="0.1" d="m516.52,603.26s-20,24 0,60"/>
  <rect id="svg_64" opacity="0.1" transform="rotate(-18.450000762939453 -264.22000122070307,198.63999938964847) " height="1" width="94.57" y="859.82" x="345.75"/>
  <rect id="svg_65" opacity="0.1" transform="rotate(-20.81999969482422 -281.17001342773455,236.83000183105463) " height="1" width="115.23" y="900.51" x="327.47999"/>
  <rect id="svg_66" opacity="0.1" transform="rotate(-22.260000228881836 -291.67999267578125,262.0199890136718) " height="1" width="133.56" y="930.44999" x="316.32001"/>
  <rect id="svg_67" opacity="0.1" transform="rotate(-24.309999465942383 -304.07000732421886,297.94000244140625) " height="1" width="153.74" y="968.28" x="303.58999"/>
  <rect id="svg_68" opacity="0.1" transform="rotate(-23.610000610351562 -300.13000488281256,290.2999877929687) " height="1" width="168.15" y="962.74999" x="308.38"/>
  <rect id="svg_69" opacity="0.1" transform="rotate(-23.360000610351562 -297.4400024414063,293.4100036621094) " height="1" width="201.22" y="966.48" x="312.19"/>
  <polygon id="svg_70" opacity="0.45" fill="#fff" points="251.53 517.76 427.53 480.76 534.75 501.26 390.53 547.76 251.53 517.76"/>
  <path id="svg_71" fill="#3a3768" d="m740.93,520.09s9.09,3.67 3.76,9.33s-209.94,64.89 -209.94,64.89l206.18,-74.22z"/>
  <path id="svg_72" fill="#d5d6db" d="m739.42,420.73s-22.67,49.67 -4.67,91.5l-181,56.5l-17.33,3.67l-8,-35l5.35,-44.17l0,-24.17l205.65,-48.33z"/>
  <polygon id="svg_73" fill="#00bfa6" points="167.89 402.85 418.41 357.18 750.37 410.06 544.18 484.29 167.89 402.85"/>
  <path id="svg_74" fill="#00bfa6" d="m167.89,402.84s-23.47,44.39 3.53,85.39l371.5,80.5s-23.06,-35.39 1.22,-84.44l-376.25,-81.45z"/>
  <path id="svg_75" opacity="0.1" d="m167.89,402.84s-23.47,44.39 3.53,85.39l371.5,80.5s-23.06,-35.39 1.22,-84.44l-376.25,-81.45z"/>
  <path id="svg_76" opacity="0.1" d="m178.96,418.23s-13.39,32.48 0,53.5"/>
  <path id="svg_77" fill="#00bfa6" d="m542.96,568.73l207.4,-66.5s11.6,2.5 4.1,11s-207.5,64 -207.5,64l-375.5,-89l371.5,80.5z"/>
  <path id="svg_78" opacity="0.1" d="m542.96,568.73l207.4,-66.5s11.6,2.5 4.1,11s-207.5,64 -207.5,64l-375.5,-89l371.5,80.5z"/>
  <path id="svg_79" opacity="0.1" d="m525.96,493.23s-20,24 0,60"/>
  <rect id="svg_80" opacity="0.1" transform="rotate(-18.450000762939453 -228.91000366210963,195.97000122070304) " height="1" width="94.57" y="747.12" x="390.5"/>
  <rect id="svg_81" opacity="0.1" transform="rotate(-20.81999969482422 -241.44000244140668,233) " height="1" width="115.23" y="786.65" x="376.64"/>
  <rect id="svg_82" opacity="0.1" transform="rotate(-22.260000228881836 -249.30000305175795,257.3999938964844) " height="1" width="133.56" y="815.79999" x="368.13"/>
  <rect id="svg_83" opacity="0.1" transform="rotate(-24.309999465942383 -257.9400024414063,292.05999755859375) " height="1" width="153.74" y="852.38" x="359.16"/>
  <rect id="svg_84" opacity="0.1" transform="rotate(-23.610000610351562 -255.27000427246097,284.8699951171875) " height="1" width="168.15" y="847.3" x="362.68"/>
  <rect id="svg_85" opacity="0.1" transform="rotate(-23.360000610351562 -253.03999328613295,288.1400146484375) " height="1" width="201.22" y="851.19001" x="366.03001"/>
  <polygon id="svg_86" opacity="0.3" fill="#fff" points="260.96 407.73 436.96 370.73 544.18 391.23 399.96 437.73 260.96 407.73"/>
  <path id="svg_87" fill="#00bfa6" d="m750.36,410.06s9.1,3.67 3.76,9.34s-209.94,64.89 -209.94,64.89l206.18,-74.23z"/>
  <path id="svg_88" fill="#00bfa6" d="m310.42,106.5s-38,-2.29 -33.56,24.37c0,0 -0.89,4.71 3.38,6.85c0,0 0.07,-2 3.9,-1.31a17.05,17.05 0 0 0 4.14,0.2a8.62,8.62 0 0 0 5.05,-2.08l0,0s10.69,-4.42 14.85,-21.9c0,0 3.08,-3.81 3,-4.79l-6.44,2.74s2.19,4.63 0.47,8.48c0,0 -0.21,-8.31 -1.45,-8.12c-0.25,0 -3.33,1.61 -3.33,1.61s3.77,8.07 0.92,13.93c0,0 1.08,-9.94 -2.1,-13.35l-4.52,2.64s4.41,8.33 1.42,15.13c0,0 0.77,-10.43 -2.37,-14.49l-4.1,3.2s4.15,8.21 1.62,13.85c0,0 -0.33,-12.14 -2.5,-13.06c0,0 -3.59,3.16 -4.13,4.46c0,0 2.84,6 1.07,9.11c0,0 -1.07,-8.09 -2,-8.13c0,0 -3.57,5.36 -3.94,9a19.46,19.46 0 0 1 3.07,-9.54a10.71,10.71 0 0 0 -5.46,2.83s0.55,-3.79 6.35,-4.12c0,0 2.95,-4.07 3.74,-4.31c0,0 -5.77,-0.49 -9.26,1.06c0,0 3.08,-3.57 10.31,-2l4,-3.3s-7.58,-1 -10.8,0.11c0,0 3.71,-3.16 11.89,-0.86l4.41,-2.63s-6.47,-1.39 -10.32,-0.89c0,0 4.06,-2.19 11.61,0.18l3.14,-1.41s-4.73,-0.93 -6.12,-1.08s-1.46,-0.53 -1.46,-0.53a16.51,16.51 0 0 1 8.9,1s6.75,-2.43 6.62,-2.85z"/>
  <path id="svg_89" opacity="0.1" fill="#00bfa6" d="m845.02,216.08s-38,-2.29 -33.56,24.37c0,0 -0.89,4.71 3.38,6.85c0,0 0.07,-2 3.9,-1.31a17.62,17.62 0 0 0 4.14,0.2a8.59,8.59 0 0 0 5,-2.08l0,0s10.7,-4.42 14.85,-21.9c0,0 3.08,-3.81 3,-4.79l-6.42,2.74s2.19,4.63 0.47,8.48c0,0 -0.21,-8.31 -1.44,-8.12c-0.25,0 -3.34,1.61 -3.34,1.61s3.77,8.07 0.93,13.93c0,0 1.08,-9.94 -2.11,-13.35l-4.52,2.64s4.41,8.33 1.42,15.13c0,0 0.77,-10.43 -2.37,-14.49l-4.09,3.2s4.14,8.21 1.61,13.85c0,0 -0.33,-12.14 -2.5,-13.06c0,0 -3.58,3.16 -4.13,4.46c0,0 2.84,6 1.08,9.11c0,0 -1.08,-8.09 -2,-8.13c0,0 -3.57,5.36 -3.94,9a19.4,19.4 0 0 1 3.08,-9.54a10.76,10.76 0 0 0 -5.47,2.83s0.56,-3.79 6.35,-4.12c0,0 2.95,-4.07 3.74,-4.32c0,0 -5.76,-0.48 -9.26,1.07c0,0 3.08,-3.57 10.31,-2l4,-3.3s-7.59,-1 -10.8,0.11c0,0 3.7,-3.16 11.89,-0.86l4.4,-2.63s-6.47,-1.39 -10.32,-0.89c0,0 4.06,-2.19 11.61,0.18l3.15,-1.41s-4.74,-0.93 -6.13,-1.08s-1.46,-0.53 -1.46,-0.53a16.39,16.39 0 0 1 8.9,1s6.77,-2.43 6.65,-2.85z"/>
  <path id="svg_90" opacity="0.1" fill="#00bfa6" d="m374.42,271.2s-16.56,-34.33 -37.64,-17.41c0,0 -4.55,1.52 -4.33,6.29c0,0 1.75,-0.91 3,2.77a17.72,17.72 0 0 0 1.84,3.7a8.63,8.63 0 0 0 4.29,3.4l0,0s9.07,7.18 26.36,2.28c0,0 4.83,0.83 5.62,0.25l-5.52,-4.27s-3,4.17 -7.18,4.54c0,0 7.16,-4.23 6.39,-5.21c-0.16,-0.2 -3,-2.13 -3,-2.13s-5.21,7.23 -11.71,7.6c0,0 9.2,-3.9 10.62,-8.35l-4.5,-2.66s-5.13,7.92 -12.52,8.62c0,0 9.48,-4.41 11.49,-9.13l-4.78,-2s-5.15,7.62 -11.31,8.17c0,0 10.44,-6.21 10.18,-8.56c0,0 -4.51,-1.58 -5.91,-1.43c0,0 -3.82,5.39 -7.42,5.39c0,0 6.53,-4.89 6.13,-5.68c0,0 -6.42,-0.5 -9.8,1a19.47,19.47 0 0 1 9.83,-2a10.77,10.77 0 0 0 -5.14,-3.39s3.58,-1.36 6.69,3.53c0,0 5,0.59 5.59,1.16c0,0 -2.39,-5.26 -5.44,-7.55c0,0 4.62,0.93 6.73,8l4.85,1.92s-2.79,-7.12 -5.36,-9.37c0,0 4.56,1.69 6.55,10l4.44,2.56s-1.93,-6.33 -4.25,-9.44c0,0 3.89,2.48 5.5,10.22l2.77,2.06s-1.5,-4.59 -2,-5.87s-0.25,-1.54 -0.25,-1.54a16.41,16.41 0 0 1 3.48,8.25s5.35,4.58 5.71,4.28z"/>
  <path id="svg_91" opacity="0.1" fill="#00bfa6" d="m758.2,167.58s-16.55,-34.33 -37.64,-17.41c0,0 -4.54,1.52 -4.33,6.29c0,0 1.76,-0.9 3,2.77a17.34,17.34 0 0 0 1.85,3.71a8.58,8.58 0 0 0 4.28,3.39l0,0s9.08,7.18 26.36,2.29c0,0 4.83,0.82 5.63,0.24l-5.49,-4.28s-3,4.18 -7.17,4.55c0,0 7.15,-4.24 6.38,-5.22c-0.16,-0.2 -3,-2.13 -3,-2.13s-5.2,7.23 -11.71,7.6c0,0 9.21,-3.9 10.63,-8.34l-4.57,-2.64s-5.12,7.91 -12.52,8.62c0,0 9.48,-4.42 11.5,-9.14l-4.79,-2s-5.15,7.63 -11.3,8.17c0,0 10.43,-6.21 10.17,-8.55c0,0 -4.5,-1.59 -5.9,-1.43c0,0 -3.82,5.38 -7.43,5.38c0,0 6.54,-4.89 6.14,-5.68c0,0 -6.42,-0.5 -9.81,1a19.46,19.46 0 0 1 9.83,-2a10.71,10.71 0 0 0 -5.13,-3.39s3.58,-1.36 6.69,3.53c0,0 5,0.6 5.59,1.17c0,0 -2.39,-5.27 -5.45,-7.56c0,0 4.62,0.94 6.73,8.05l4.86,1.92s-2.79,-7.13 -5.36,-9.38c0,0 4.56,1.69 6.54,10l4.45,2.56s-1.94,-6.32 -4.26,-9.44c0,0 3.9,2.48 5.5,10.22l2.77,2.06s-1.49,-4.59 -2,-5.87s-0.25,-1.53 -0.25,-1.53a16.45,16.45 0 0 1 3.47,8.25s5.43,4.54 5.74,4.22z"/>
  <path id="svg_92" opacity="0.1" fill="#00bfa6" d="m811.09,337.39s-16.55,-34.34 -37.67,-17.42c0,0 -4.54,1.52 -4.33,6.29c0,0 1.76,-0.9 3,2.77a17.33,17.33 0 0 0 1.84,3.71a8.58,8.58 0 0 0 4.28,3.39l0,0s9.08,7.19 26.37,2.29c0,0 4.82,0.83 5.62,0.24l-5.52,-4.27s-3,4.18 -7.18,4.55c0,0 7.15,-4.24 6.38,-5.22c-0.16,-0.2 -3,-2.13 -3,-2.13s-5.2,7.23 -11.71,7.61c0,0 9.21,-3.91 10.63,-8.35l-4.51,-2.66s-5.12,7.92 -12.52,8.62c0,0 9.48,-4.42 11.5,-9.14l-4.79,-2s-5.15,7.62 -11.3,8.17c0,0 10.44,-6.21 10.18,-8.56c0,0 -4.51,-1.59 -5.91,-1.43c0,0 -3.82,5.38 -7.43,5.38c0,0 6.54,-4.89 6.14,-5.68c0,0 -6.42,-0.5 -9.81,1a19.52,19.52 0 0 1 9.84,-2a10.69,10.69 0 0 0 -5.14,-3.39s3.58,-1.37 6.69,3.53c0,0 5,0.59 5.59,1.16c0,0 -2.39,-5.26 -5.44,-7.56c0,0 4.62,0.94 6.73,8.05l4.85,1.92s-2.79,-7.13 -5.36,-9.37c0,0 4.56,1.68 6.54,10l4.45,2.55s-1.94,-6.32 -4.26,-9.44c0,0 3.9,2.48 5.51,10.23l2.77,2s-1.5,-4.59 -2,-5.87s-0.25,-1.53 -0.25,-1.53a16.35,16.35 0 0 1 3.47,8.25s5.44,4.61 5.75,4.31z"/>
  <ellipse id="svg_93" opacity="0.1" fill="#00bfa6" ry="2.57" rx="22.99" cy="781.59" cx="201.95"/>
  <ellipse id="svg_94" opacity="0.1" fill="#00bfa6" ry="2.57" rx="22.99" cy="737.91" cx="51.24"/>
  <ellipse id="svg_95" opacity="0.1" fill="#00bfa6" ry="2.57" rx="22.99" cy="810.6" cx="316.83"/>
  <ellipse id="svg_96" opacity="0.1" fill="#00bfa6" ry="2.57" rx="22.99" cy="747.41" cx="905.53"/>
  <ellipse id="svg_97" opacity="0.1" fill="#00bfa6" ry="2.57" rx="22.99" cy="734.94" cx="714.22"/>
  <ellipse id="svg_98" opacity="0.1" fill="#00bfa6" ry="4.67" rx="27.19" cy="793.66" cx="590.46"/>
  <path id="svg_99" fill="#00bfa6" d="m602.59,746.72s-37.86,19.56 -18.3,42.6c0,0 1.84,5 7.16,4.65c0,0 -1.06,-1.94 3,-3.49a19.51,19.51 0 0 0 4.09,-2.17a9.61,9.61 0 0 0 3.66,-4.89l0,0s7.74,-10.36 1.74,-29.53c0,0 0.78,-5.42 0.1,-6.3l-4.6,6.31s4.75,3.19 5.3,7.88c0,0 -5,-7.87 -6,-7c-0.22,0.18 -2.28,3.45 -2.28,3.45s8.24,5.59 8.85,12.85c0,0 -4.64,-10.17 -9.65,-11.62l-2.87,5.12s9,5.48 10,13.72c0,0 -5.23,-10.45 -10.57,-12.56l-2.11,5.41s8.68,5.52 9.48,12.38c0,0 -7.26,-11.47 -9.87,-11.11c0,0 -1.64,5.08 -1.42,6.65c0,0 6.13,4.1 6.24,8.13c0,0 -5.66,-7.15 -6.53,-6.68c0,0 -0.36,7.19 1.38,10.93c0,0 -3,-5.34 -2.51,-10.93a12,12 0 0 0 -3.63,5.84s-1.63,-3.95 3.74,-7.59c0,0 0.51,-5.59 1.13,-6.28c0,0 -5.81,2.84 -8.28,6.32c0,0 0.91,-5.19 8.79,-7.77l2,-5.48s-7.88,3.34 -10.31,6.28c0,0 1.75,-5.15 10.93,-7.62l2.72,-5s-7,2.36 -10.42,5c0,0 2.65,-4.43 11.26,-6.47l2.21,-3.15s-5.08,1.81 -6.5,2.46s-1.7,0.33 -1.7,0.33a18.39,18.39 0 0 1 9.11,-4.14s5.01,-6.19 4.66,-6.53z"/>
  <path id="svg_100" fill="url(#3cf802be-0480-4c68-848a-073112220499)" d="m714.96,377.29c-6.54,-17.77 -42.54,-19.44 -58.16,-14.91c-11.1,3.23 -34.5,6.87 -47,8.7l-0.81,-0.77c1.62,-0.48 1.66,-1.66 1.46,-3.41a53.37,53.37 0 0 1 0.1,-6.92c7.66,2.38 14.48,-3.25 14.48,-3.25l0,0c9,-4 6.58,-21.12 8.3,-25.8c1.29,-3.5 2.68,-24.12 3.3,-34.4l0.13,0l0.07,-3.45c0.09,-1.49 0.13,-2.36 0.13,-2.36s0.88,-25.14 2.6,-30.23c1.6,-4.68 2.9,-28.26 3.1,-32c0,-0.32 0,-0.49 0,-0.49l-0.13,-2.18c0.09,-1.59 0.13,-3.36 0.12,-5.22c0,-8.55 -0.89,-19.32 -1,-21.06c0,-0.25 0,-0.55 0,-0.91c0.07,-3.65 -0.39,-21.93 -15.94,-28.84c-5.73,-2.56 -12.62,-5.61 -19.29,-8.58c-1.72,-14.85 -5.65,-29.62 -5.31,-44.58c0,-2.25 0.2,-4.5 0.42,-6.74c0,0.65 -0.07,1.31 -0.08,2c0,1.45 0,2.91 0,4.36c0.59,-18.71 7.66,-37.52 7,-55.83c-0.06,1.79 -0.19,3.59 -0.36,5.39a58.13,58.13 0 0 0 -1.92,-18.39c-0.6,-2.11 -1.41,-4.29 -3.14,-5.7a12.93,12.93 0 0 0 -5.48,-2.17a110.21,110.21 0 0 0 -14.39,-2.68a22.22,22.22 0 0 0 -3.24,-6.29c-10.14,-13.92 -25.16,-27 -42.92,-30c-8.91,-1.5 -19.16,-0.25 -25.22,6.12a18.92,18.92 0 0 0 -1.78,1.8c-3.26,3.89 -4.66,9 -8,12.88c-0.22,0.26 -0.47,0.5 -0.71,0.75c-6.54,5.85 -16.73,7.07 -24,12.32a28.81,28.81 0 0 0 -3.59,3.13a60.88,60.88 0 0 0 -7.84,9.53c-3.27,4.6 -6.63,9.39 -7.67,14.88c-2.09,11 5.4,21.43 6.79,32.5c3.1,24.77 -24.31,46.75 -19.12,71.19a32.6,32.6 0 0 0 8.82,15.83c-10.69,9.68 -19.79,19.07 -19.79,19.07l0,0.56l-1.69,0l0.17,2l-0.17,0l0.93,10.85l-0.93,15.8s0,0.17 0,0.49l0,0.08l0,0.43s0,0.17 0,0.49l0.06,0c0.31,5.79 1.54,26.61 3,31c1.72,5.09 2.59,30.23 2.59,30.23s1.9,35.53 3.64,40.23s-0.73,21.77 8.3,25.8l0,0a19,19 0 0 0 9.07,3.76c-0.46,3.74 -0.17,6.45 1.32,7.3a4.36,4.36 0 0 0 2.1,0.6a22.29,22.29 0 0 0 -1.63,2.85a42.36,42.36 0 0 1 -10.48,-2.47c-9.7,-4 -41.89,-13 -51.24,-6.67s-31.85,12.07 -21.46,37.55s15.23,26.12 15.23,26.12a37,37 0 0 1 8.31,8.35c3.12,4.69 32.19,15.42 39.46,15.42a71.19,71.19 0 0 1 9.25,0.46s-7.89,6.92 -6.84,10.94s-2.4,36.2 -2.4,36.2s8,8.06 11.42,-2.51l0.12,0.16c0.64,0.87 4.1,4.8 10.61,-0.16a59.48,59.48 0 0 1 8.46,-5.36l31.52,-4.46a89.24,89.24 0 0 1 9.87,-0.07c5,0.41 9.91,-2.55 13,-4.84c6.53,2.48 13.87,5.19 17.36,6.18c7.08,2 39.62,10.73 47.23,8a10.57,10.57 0 0 0 4.1,-2.92l7.26,0.23l-3.4,0.68s6.62,0.11 15.62,0.23l-0.38,0.22l11.29,-0.1c16.52,0.15 35.08,0.2 37.52,-0.35c3.82,-0.85 23.67,-0.25 29.52,0l1.63,0s21.81,-4.35 12.81,-26.48c-6.92,-17 -28.19,-21.94 -37.63,-23.3c2.66,-0.53 4.95,-0.94 6.47,-1.18c6.59,-1 19.39,-7 20.43,-9.05s11.77,-8 14.54,-11.39s10.68,-27.42 4.11,-45.19zm-180.65,49.73l-1.07,0.35l-0.72,0.24l-1.38,1.36c-1.1,-0.74 -2.28,-1.52 -3.51,-2.32c2.17,0.13 4.4,0.26 6.68,0.37zm95.31,28.18l0,0z"/>
  <path id="svg_101" fill="#FFA9A2" d="m598.07,321.58s15.3,40 24,36s6.34,-21 8,-25.66s3.5,-40 3.5,-40s0.84,-25 2.5,-30.06c1.54,-4.65 2.79,-28.1 3,-31.79c0,-0.32 0,-0.49 0,-0.49l-1.65,-29l-9.34,-2.33l-21.66,8l-3,17.13l-1.17,6.69l-0.5,2.85l-3.68,88.66z"/>
  <path id="svg_102" opacity="0.1" d="m603.11,314.88s14.6,11.95 19,13s7.1,10.37 7.1,10.37"/>
  <path id="svg_103" fill="#FFA9A2" d="m478.42,323.33s-15.3,40 -24,36s-6.34,-21 -8,-25.66s-3.5,-40 -3.5,-40s-0.84,-25 -2.5,-30.06c-1.54,-4.65 -2.79,-28.1 -3,-31.79c0,-0.32 0,-0.49 0,-0.49l1.66,-29l9.34,-2.33l21.66,8l3,17.13l1.17,6.69l0.5,2.85l3.67,88.66z"/>
  <rect id="svg_104" fill="#3e373a" height="53.23" width="34.15" y="109.27" x="543.9"/>
  <rect id="svg_105" opacity="0.1" height="53.23" width="34.15" y="109.27" x="543.9"/>
  <path id="svg_106" fill="#4b4b5b" d="m472.42,363.17s-11.67,12.83 -7.34,15.16s32.34,46 32.34,46s92,11.33 109.35,-5.67s17,-47.37 17,-47.37s-13.94,3 -15.46,1.37s-9.87,-9.49 -9.87,-9.49s-118.02,-7.16 -126.02,0z"/>
  <path id="svg_107" opacity="0.02" d="m472.42,363.17s-11.67,12.83 -7.34,15.16s32.34,46 32.34,46s92,11.33 109.35,-5.67s17,-47.37 17,-47.37s-13.94,3 -15.46,1.37s-9.87,-9.49 -9.87,-9.49s-118.02,-7.16 -126.02,0z"/>
  <path id="svg_108" fill="#FFA9A2" d="m638.04,201l-30,24l-9.07,0.66l-3.33,0.24l-55.93,4.1l-58,-4.24l-8.63,-0.63l-11,-0.8l-23,-22s16.28,-17.44 30.54,-29.21c5.62,-4.65 10.93,-8.41 14.8,-9.89l0.66,-0.23a16.46,16.46 0 0 0 6.34,-4.42c11.26,-11.61 21.67,-40.26 21.67,-40.26s49.67,-25.66 43.67,8s22.33,25.34 22.33,25.34l9.34,4.26l3.69,1.69l9.41,4.31l21.23,9.74c16.66,7.67 15.28,29.34 15.28,29.34z"/>
  <circle id="svg_109" opacity="0.1" r="44.67" cy="101.06" cx="537.38"/>
  <path id="svg_110" opacity="0.1" d="m638.11,232.82l-200.69,0c0,-0.32 0,-0.49 0,-0.49l1.66,-29s16.28,-17.44 30.54,-29.21l126,-5l5.86,-6.18l21.23,9.74c16.67,7.66 15.33,29.33 15.33,29.33s2.28,25.11 0.07,30.81z"/>
  <path id="svg_111" fill="#84D3DB" d="m638.11,231.82l-200.69,0c0,-0.32 0,-0.49 0,-0.49l1.66,-29s16.28,-17.44 30.54,-29.21l126,-5l5.86,-6.18l21.23,9.74c16.67,7.66 15.33,29.33 15.33,29.33s2.28,25.11 0.07,30.81z"/>
  <path id="svg_112" opacity="0.1" d="m505.21,150.5s31.66,40.34 73.83,-0.83s4.67,91.83 4.67,91.83l-91,10.8l12.5,-101.8z"/>
  <path id="svg_113" fill="#84D3DB" d="m505.21,152.5s31.66,40.34 73.83,-0.83s4.67,91.83 4.67,91.83l-91,10.8l12.5,-101.8z"/>
  <path id="svg_114" opacity="0.1" d="m592.07,159.58l3.35,51.09l3.59,17l2.74,13s7,100 5,105s1,9 1.42,11.66s-0.42,9.34 -0.09,12.34s0,4.33 -7.66,3.26s-18.34,-2.93 -18.34,-2.93s-27,2 -36.33,-1.33s-27,-3.34 -27,-3.34s-26.67,0.67 -35.33,-0.33s-13.34,10.67 -19,7.33s6.66,-35.66 10.66,-45s-5.33,-33 -5.33,-33l12,-66.57l2.67,-15.09l0,-47.44l0.66,-0.23a16.46,16.46 0 0 0 6.34,-4.42l3,47.74l94,3.34l0,-53.73"/>
  <path id="svg_115" fill="#84D3DB" d="m592.07,157.58l3.35,51.09l3.59,17l2.74,13s7,100 5,105s1,9 1.42,11.66s-0.42,9.34 -0.09,12.34s0,4.33 -7.66,3.26s-18.34,-2.93 -18.34,-2.93s-27,2 -36.33,-1.33s-27,-3.34 -27,-3.34s-26.67,0.67 -35.33,-0.33s-13.34,10.67 -19,7.33s6.66,-35.66 10.66,-45s-5.33,-33 -5.33,-33l12,-66.57l2.67,-15.09l0,-47.44l0.66,-0.23a16.46,16.46 0 0 0 6.34,-4.42l3,47.74l94,3.34l0,-53.73"/>
  <path id="svg_116" opacity="0.1" d="m602.88,50.96c-0.57,-2.09 -1.36,-4.26 -3,-5.66a12.28,12.28 0 0 0 -5.28,-2.16a104.32,104.32 0 0 0 -13.88,-2.66a22.22,22.22 0 0 0 -3,-6.23c-9.8,-13.84 -24.3,-26.89 -41.36,-29.84c-8.93,-1.55 -19.28,-0.16 -25,6.88c-3.14,3.87 -4.49,9 -7.66,12.8c-6.11,7.38 -17.14,8.29 -24.84,14c-4.11,3 -7.09,7.35 -10,11.57c-3.15,4.57 -6.39,9.33 -7.39,14.79c-2,10.91 5.21,21.31 6.54,32.32c3,24.63 -23.4,46.48 -18.41,70.78c2.91,14.17 16,24.15 29.54,29.21c4.77,1.79 10.22,3.57 12.45,8.15c1,2 1.17,4.31 2.11,6.33c3.16,6.74 13.55,7 19.13,2.09s7.34,-12.85 8,-20.26c2.68,-32.36 -10.28,-64.33 -8.77,-96.77c0.45,-9.81 3.21,-20.94 12,-25.38c11.83,-6 26.06,4 39.08,2.09a77.53,77.53 0 0 1 3.74,47.31c-2.07,8.63 -5.65,17 -5.91,25.9c-0.39,13.55 6.92,25.93 13.24,37.91a20.17,20.17 0 0 1 2.67,7.31a17.62,17.62 0 0 1 -1.43,7.65c-3.57,9.61 -9.73,18.53 -10.43,28.76a4.65,4.65 0 0 0 0.75,3.42a4.3,4.3 0 0 0 2.58,1.16c10.8,1.85 20.14,-7.72 25.41,-17.33a81.24,81.24 0 0 0 10.02,-34.52c1.09,-20.36 -6.21,-40.39 -5.76,-60.77c0.52,-23.17 10.99,-46.5 4.86,-68.85z"/>
  <path id="svg_117" fill="#3e373a" d="m603.88,49.96c-0.57,-2.09 -1.36,-4.26 -3,-5.66a12.28,12.28 0 0 0 -5.28,-2.16a104.32,104.32 0 0 0 -13.88,-2.66a22.22,22.22 0 0 0 -3,-6.23c-9.8,-13.84 -24.3,-26.89 -41.36,-29.84c-8.93,-1.55 -19.28,-0.16 -25,6.88c-3.14,3.87 -4.49,9 -7.66,12.8c-6.11,7.38 -17.14,8.29 -24.84,14c-4.11,3 -7.09,7.35 -10,11.57c-3.15,4.57 -6.39,9.33 -7.39,14.79c-2,10.91 5.21,21.31 6.54,32.32c3,24.63 -23.4,46.48 -18.41,70.78c2.91,14.17 16,24.15 29.54,29.21c4.77,1.79 10.22,3.57 12.45,8.15c1,2 1.17,4.31 2.11,6.33c3.16,6.74 13.55,7 19.13,2.09s7.34,-12.85 8,-20.26c2.68,-32.36 -10.28,-64.33 -8.77,-96.77c0.45,-9.81 3.21,-20.94 12,-25.38c11.83,-6 26.06,4 39.08,2.09a77.53,77.53 0 0 1 3.74,47.31c-2.07,8.63 -5.65,17 -5.91,25.9c-0.39,13.55 6.92,25.93 13.24,37.91a20.17,20.17 0 0 1 2.67,7.31a17.62,17.62 0 0 1 -1.43,7.65c-3.57,9.61 -9.73,18.53 -10.43,28.76a4.65,4.65 0 0 0 0.75,3.42a4.3,4.3 0 0 0 2.58,1.16c10.8,1.85 20.14,-7.72 25.41,-17.33a81.24,81.24 0 0 0 10.02,-34.52c1.09,-20.36 -6.21,-40.39 -5.76,-60.77c0.52,-23.17 10.99,-46.5 4.86,-68.85z"/>
  <polygon id="svg_118" fill="#c3c7d9" points="581.79 492.73 621.46 494 615.77 464.58 585.38 467.47 581.79 492.73"/>
  <path id="svg_119" fill="#4b4b5b" d="m704.71,423c-2.67,3.33 -13,9.33 -14,11.33s-13.33,8 -19.67,9s-26.33,5.34 -30,7.67c-2.63,1.68 -23.74,7 -37.61,9.95a106.75,106.75 0 0 1 -11.39,2.05c-6,0.33 -71.66,-22 -71.66,-22l12.66,-13l0.7,-0.24c3.58,-1.21 20.12,-6.8 29.3,-9.46c10.34,-3 22.34,-15.33 22.34,-15.33s17.66,-6 20,-6.67s-6,-23.33 -6,-23.33s38.33,-5.32 53.33,-9.83s49.67,-2.84 56,14.83s-1.29,41.7 -4,45.03z"/>
  <path id="svg_120" fill="#e7c7ca" d="m530.04,479.33s-7.66,8 -15.33,7.34s-34.49,2 -34.49,2a53.77,53.77 0 0 0 -13.51,7.83c-6.27,4.94 -9.6,1 -10.22,0.16l-0.11,-0.16c-3.34,10.51 -11,2.5 -11,2.5s3.33,-32 2.31,-36s6.59,-10.87 6.59,-10.87l9,-2.29l22.8,-5.84l32.67,11.33l11.29,24z"/>
  <path id="svg_121" opacity="0.1" d="m463.24,449.84l-6.75,46.82l-0.11,-0.16c-3.34,10.51 -11,2.5 -11,2.5s3.33,-32 2.31,-36s6.59,-10.87 6.59,-10.87l8.96,-2.29z"/>
  <path id="svg_122" opacity="0.1" d="m510.42,316.66s17.66,6 33,0"/>
  <path id="svg_123" opacity="0.1" d="m570.71,328s7.33,3.66 13,0"/>
  <path id="svg_124" opacity="0.1" d="m570.71,336.68s12.33,1.65 14.67,-1.68"/>
  <path id="svg_125" opacity="0.1" d="m566.71,355.33s23.16,-3 28.91,-7"/>
  <path id="svg_126" opacity="0.1" d="m496.04,348.33s13,7.33 22.67,7"/>
  <path id="svg_127" opacity="0.1" d="m603.42,460.95a106.75,106.75 0 0 1 -11.39,2.05c-6,0.33 -71.66,-22 -71.66,-22l12.66,-13l0.7,-0.24c2,1.41 3.64,2.62 4.81,3.54c5.51,4.34 10.83,-1.33 12.83,-1.33s19.33,14.33 19.33,14.33s16,3.67 18.67,7s12,2.67 13.66,5c0.5,0.72 0.56,2.49 0.39,4.65z"/>
  <path id="svg_128" fill="#4b4b5b" d="m480.22,374.33s-16.18,0.93 -25.51,-3s-40.33,-13 -49.33,-6.63s-30.67,12 -20.67,37.34s14.67,26 14.67,26a36.1,36.1 0 0 1 8,8.3c3,4.67 31,15.33 38,15.33s19.33,0 36.66,12s33,13.34 33,13.34s22,9 28.85,11s38.15,10.66 45.49,8s12,-19.34 12,-19.34s3.33,-15 1.66,-17.33s-11,-1.67 -13.66,-5s-18.67,-7 -18.67,-7s-17.29,-14.34 -19.29,-14.34s-7.32,5.66 -12.83,1.33a292.69,292.69 0 0 0 -34.51,-22c-12.66,-6.67 -23.86,-38 -23.86,-38z"/>
  <path id="svg_129" opacity="0.1" d="m447.69,384a19.1,19.1 0 0 1 16.39,4.33c8,6.67 34.92,20.06 34.92,20.06"/>
  <path id="svg_130" opacity="0.1" d="m647.71,383.58s-35.67,5.4 -42.33,12.73"/>
  <path id="svg_131" fill="#e7c7ca" d="m688.71,494l-1.57,0c-5.64,-0.2 -24.75,-0.8 -28.43,0c-4.33,1 -61.67,0 -61.67,0l11.21,-2.33s-4.16,-14.58 -1.52,-15.79c0,0 -15,-9.88 -3.69,-16.55s23.5,-3.86 23.5,-3.86l28.39,-9.62l5.45,-1.85s32,1.67 40.66,23.67s-12.33,26.33 -12.33,26.33z"/>
  <path id="svg_132" opacity="0.1" d="m688.71,494l-1.57,0c9.31,-7.68 30.37,-31.06 -32.21,-48.1l5.45,-1.85s32,1.67 40.66,23.67s-12.33,26.28 -12.33,26.28z"/>
  <circle id="svg_133" fill="#4b4b5b" r="1.75" cy="466.33" cx="629.88"/>
  <circle id="svg_134" fill="#4b4b5b" r="1.75" cy="469.22" cx="619.71"/>
  <g id="svg_135" opacity="0.1">
   <path id="svg_136" d="m570.16,99.41a77.59,77.59 0 0 0 -5.74,-32.14c-13,1.94 -27.24,-8.09 -39.08,-2.09c-8.76,4.44 -11.51,15.57 -12,25.38c-0.12,2.59 -0.14,5.18 -0.09,7.77c0,-0.92 0,-1.85 0.09,-2.77c0.46,-9.81 3.21,-20.94 12,-25.38c11.84,-6 26.06,4 39.08,2.09a77.38,77.38 0 0 1 5.74,27.14z"/>
   <path id="svg_137" d="m469.42,97.58a33.32,33.32 0 0 0 -0.13,-6.54c-1.06,-8.8 -5.87,-17.21 -6.74,-25.79c-1.12,10.35 5.47,20.29 6.74,30.79c0.13,0.54 0.13,1.02 0.13,1.54z"/>
   <path id="svg_138" d="m522.11,187.32c-0.62,7.42 -2.37,15.35 -8,20.27s-16,4.65 -19.13,-2.09c-1,-2 -1.15,-4.33 -2.12,-6.33c-2.22,-4.58 -7.68,-6.36 -12.45,-8.15c-13.55,-5.07 -26.62,-15 -29.53,-29.21a30.68,30.68 0 0 1 -0.53,-3.9a31.52,31.52 0 0 0 0.53,8.9c2.91,14.17 16,24.14 29.53,29.21c4.77,1.79 10.23,3.57 12.45,8.15c1,2 1.17,4.31 2.12,6.33c3.15,6.74 13.54,7 19.13,2.09s7.33,-12.85 8,-20.27a114.29,114.29 0 0 0 0.31,-11.74c0,2.27 -0.13,4.51 -0.31,6.74z"/>
   <path id="svg_139" d="m599.35,114.07c0,1.45 0,2.89 0,4.33c0.56,-18.6 7.38,-37.3 6.71,-55.51c-0.52,16.84 -6.33,34.06 -6.71,51.18z"/>
   <path id="svg_140" d="m577.89,189.31a12.89,12.89 0 0 0 0.23,-3.61a20,20 0 0 0 -2.67,-7.31c-5.78,-11 -12.37,-22.26 -13.15,-34.47c0,0.52 -0.07,1 -0.08,1.56c-0.4,13.54 6.91,25.93 13.23,37.91a24,24 0 0 1 2.44,5.92z"/>
   <path id="svg_141" d="m605.1,174.84a81.37,81.37 0 0 1 -10.09,34.52c-5.28,9.61 -14.61,19.18 -25.42,17.33a4.25,4.25 0 0 1 -2.58,-1.17a2.5,2.5 0 0 1 -0.47,-0.78c-0.12,0.78 -0.22,1.57 -0.28,2.37a4.61,4.61 0 0 0 0.75,3.41a4.25,4.25 0 0 0 2.58,1.17c10.81,1.85 20.14,-7.72 25.42,-17.33a81.37,81.37 0 0 0 10.09,-34.52c0.12,-2.34 0.13,-4.67 0.06,-7c-0.02,0.67 -0.02,1.33 -0.06,2z"/>
  </g>
  <path id="svg_142" opacity="0.1" stroke-miterlimit="10" stroke="#000" fill="none" d="m606.73,475.88s25.31,10.62 42,-12.88"/>
  <path id="svg_143" opacity="0.1" stroke-miterlimit="10" stroke="#000" fill="none" d="m611.71,494.44s20.67,-13.44 47,-0.44"/>
  <path id="svg_144" opacity="0.1" stroke-miterlimit="10" stroke="#000" fill="none" d="m473.35,491.39s8.68,-19.58 31.86,-4.65"/>
  <path id="svg_145" opacity="0.1" d="m445.21,201.83l17.7,-16s68.63,-4.5 71.47,18.83c0,0 24.33,-27.66 75.5,-21.5l21.65,17.24l-59.84,26.26l-58.15,20.17l-42.83,-19.17l-25.5,-25.83z"/>
  <path id="svg_146" fill="#d5d6db" d="m445.21,202.83l17.7,-16s68.63,-4.5 71.47,18.83c0,0 24.33,-27.66 75.5,-21.5l21.65,17.24l-59.84,26.26l-58.15,20.17l-42.83,-19.17l-25.5,-25.83z"/>
  <polygon id="svg_147" opacity="0.1" points="437.38 204.83 445.21 298.5 528.21 302.67 524.61 209.4 524.54 207.83 437.38 204.83"/>
  <polygon id="svg_148" fill="#00bfa6" points="437.38 202.83 445.21 296.5 528.21 300.67 524.61 207.4 524.54 205.83 437.38 202.83"/>
  <polygon id="svg_149" opacity="0.1" points="635.33 202.83 549.71 215.67 549.71 309.76 633.38 297.67 635.33 202.83"/>
  <polygon id="svg_150" fill="#00bfa6" points="635.33 200.83 549.71 213.67 549.71 307.76 633.38 295.67 635.33 200.83"/>
  <polygon id="svg_151" opacity="0.3" fill="#fff" points="615.14 223.79 568.89 228.93 569.9 244.69 615.11 239.75 615.14 223.79"/>
  <path id="svg_152" fill="#FFA9A2" d="m449.71,346.66l4.71,12.67s7,6 14.66,3s14.34,-4.49 17.67,-7.41s8,-17.59 8,-17.59s4.67,-16 9.33,-20s17,-59.11 0,-53.72s-30,55.39 -30,55.39s-3,3.66 -7.33,4s-13,-0.67 -14.67,3s-7.37,13.33 -2.37,20.66z"/>
  <path id="svg_153" opacity="0.1" d="m549.71,215.66a28.8,28.8 0 0 1 -25.11,-6.26l3.61,93.26s8.5,9.2 21.5,7.1l0,-94.1z"/>
  <path id="svg_154" fill="#00bfa6" d="m549.71,213.66a28.8,28.8 0 0 1 -25.11,-6.26l3.61,93.26s8.5,9.2 21.5,7.1l0,-94.1z"/>
  <path id="svg_155" opacity="0.1" d="m549.71,213.66a28.8,28.8 0 0 1 -25.11,-6.26l3.61,93.26s8.5,9.2 21.5,7.1l0,-94.1z"/>
  <path id="svg_156" opacity="0.1" d="m551.71,203.15s34.83,-10.65 43.91,-9.15"/>
  <path id="svg_157" opacity="0.1" d="m512.75,198.5s-33.76,-8 -39.4,-5.73"/>
  <path id="svg_158" opacity="0.1" d="m573.67,204.48s23.29,-8.54 31.71,-4.48"/>
  <path id="svg_159" opacity="0.1" d="m561.94,418.71a76.56,76.56 0 0 1 11.48,-7.13c6,-2.89 17,-10.39 17,-10.39"/>
  <path id="svg_160" opacity="0.1" d="m473.35,316.66s-14.61,11.95 -19,13s-7.1,10.37 -7.1,10.37"/>
  <path id="svg_161" fill="#FFA9A2" d="m626.74,344.88l-4.66,12.7s-7,6 -14.67,3s-14.33,-4.49 -17.67,-7.41s-8,-17.59 -8,-17.59s-4.66,-16 -9.33,-20s-17,-59.11 0,-53.72s30,55.39 30,55.39s3,3.66 7.33,4s13,-0.67 14.67,3s7.33,13.33 2.33,20.63z"/>
  <path id="svg_162" opacity="0.1" d="m618.57,321.52s9.55,6.14 9.51,13.48"/>
  <circle id="svg_163" fill="#FFA9A2" r="44.67" cy="98.87" cx="537.54"/>
  <path id="svg_164" fill="#3e373a" d="m509.49,86.88c5.42,-0.85 10.17,-4 15.35,-5.81c11.59,-4.07 24.41,-1.28 36.14,2.39c4.5,1.41 9.07,3 13.79,3s9.73,-1.93 12.14,-6c2.22,-3.74 1.79,-8.6 -0.08,-12.53s-5,-7.09 -8.16,-10.07c-10.4,-9.82 -23.3,-19 -37.57,-18c-5.74,0.41 -11.23,2.46 -16.51,4.73a182,182 0 0 0 -19.38,9.76c-4.81,2.79 -13.72,6.52 -16.49,11.62c-6.3,11.49 10.97,22.45 20.77,20.91z"/>
  <path id="svg_165" opacity="0.1" d="m586.91,76.26c-2.41,4.07 -7.42,6 -12.14,6s-9.29,-1.53 -13.8,-2.94c-11.73,-3.67 -24.54,-6.47 -36.14,-2.39c-5.17,1.81 -9.93,5 -15.35,5.8c-7.9,1.24 -20.62,-5.64 -22,-14.39c-1.55,10.11 13.2,18.77 22,17.39c5.42,-0.85 10.18,-4 15.35,-5.8c11.6,-4.08 24.41,-1.28 36.14,2.39c4.51,1.41 9.07,3 13.8,2.94s9.73,-1.92 12.14,-6a11.71,11.71 0 0 0 1.4,-7.31a10.78,10.78 0 0 1 -1.4,4.31z"/>
  <path id="svg_166" fill="#00bfa6" d="m949.42,618.21s5.93,7.75 -2.74,19.46s-15.81,21.59 -12.93,28.89c0,0 13.08,-21.74 23.72,-22.05s3.64,-13.23 -8.05,-26.3z"/>
  <path id="svg_167" opacity="0.1" d="m949.42,618.21a9.6,9.6 0 0 1 1.21,2.43c10.38,12.2 15.92,23.59 5.93,23.87c-9.3,0.27 -20.45,16.9 -23.12,21.09a9.78,9.78 0 0 0 0.31,1s13.08,-21.74 23.72,-22.05s3.64,-13.27 -8.05,-26.34z"/>
  <path id="svg_168" fill="#ffd037" d="m960.42,628.09c0,2.73 -0.31,4.94 -0.68,4.94s-0.69,-2.21 -0.69,-4.94s0.38,-1.44 0.76,-1.44s0.61,-1.29 0.61,1.44z"/>
  <path id="svg_169" fill="#ffd037" d="m964.21,631.35c-2.39,1.3 -4.48,2.09 -4.66,1.76s1.61,-1.66 4,-3s1.45,-0.36 1.63,0s1.43,-0.07 -0.97,1.24z"/>
  <path id="svg_170" fill="#00bfa6" d="m918.08,618.21s-5.93,7.75 2.74,19.46s15.81,21.59 12.92,28.89c0,0 -13.07,-21.74 -23.72,-22.05s-3.6,-13.23 8.06,-26.3z"/>
  <path id="svg_171" opacity="0.1" d="m918.08,618.21a9.6,9.6 0 0 0 -1.21,2.43c-10.38,12.2 -15.92,23.59 -5.93,23.87c9.29,0.27 20.45,16.9 23.12,21.09a7.72,7.72 0 0 1 -0.32,1s-13.07,-21.74 -23.72,-22.05s-3.6,-13.27 8.06,-26.34z"/>
  <path id="svg_172" fill="#ffd037" d="m907.06,628.09c0,2.73 0.3,4.94 0.68,4.94s0.69,-2.21 0.69,-4.94s-0.39,-1.44 -0.76,-1.44s-0.61,-1.29 -0.61,1.44z"/>
  <path id="svg_173" fill="#ffd037" d="m903.28,631.35c2.39,1.3 4.48,2.09 4.66,1.76s-1.61,-1.66 -4,-3s-1.45,-0.36 -1.63,0s-1.43,-0.07 0.97,1.24z"/>
  <ellipse id="svg_174" opacity="0.1" fill="#00bfa6" ry="9.51" rx="62" cy="716.37" cx="933.75"/>
  <path id="svg_175" fill="#65617d" d="m965.66,656.11l-0.3,2.42l-0.42,3.42l-0.17,1.43l-0.42,3.42l-0.18,1.43l-0.41,3.41l-4.75,38.9c-0.42,3.47 -6.09,6.18 -12.94,6.18l-24.65,0c-6.85,0 -12.51,-2.71 -12.94,-6.18l-4.75,-38.9l-0.42,-3.41l-0.17,-1.43l-0.42,-3.42l-0.18,-1.43l-0.41,-3.42l-0.3,-2.42c-0.23,-2 2.83,-3.62 6.71,-3.62l50.42,0c3.87,0 6.94,1.65 6.7,3.62z"/>
  <polygon id="svg_176" fill="#9d9cb5" points="965.36 658.53 964.95 661.95 902.55 661.95 902.13 658.53 965.36 658.53"/>
  <polygon id="svg_177" fill="#9d9cb5" points="964.77 663.38 964.36 666.8 903.14 666.8 902.72 663.38 964.77 663.38"/>
  <polygon id="svg_178" fill="#9d9cb5" points="964.18 668.23 963.76 671.65 903.73 671.65 903.32 668.23 964.18 668.23"/>
 </g>
</svg>